# xmcd CD database file
# Copyright (C) 1993-1998 Ti Kan
#
# Track frame offsets:
#	150
#	16285
#	37755
#	55130
#	80987
#	96267
#	121507
#	144062
#	165077
#	179325
#
# Disc length: 2591 seconds
#
# Revision: 1
# Processed by: cddbd v1.4b41PL1 Copyright (c) Steve Scherf et al.
# Submitted via: CDValet v3.31 - Copyright (c) 1997 Greg Leichner
#
DISCID=6b0a1d0a
DTITLE=Mollie O'Brien - Every Night In The Week
DYEAR=1900
DGENRE=
TTITLE0=Every Night In The Week
TTITLE1=It'll Come To You
TTITLE2=Cheater Man
TTITLE3=Romance
TTITLE4=Somebody Else's Fire
TTITLE5=Isn't That So
TTITLE6=Oh! Darling
TTITLE7=Don't Take Advantage Of Me
TTITLE8=Whole Lotta Shakin' Goin' On
TTITLE9=Husband
EXTD=
EXTT0=
EXTT1=
EXTT2=
EXTT3=
EXTT4=
EXTT5=
EXTT6=
EXTT7=
EXTT8=
EXTT9=
PLAYORDER=
